<?xml version="1.0" encoding="UTF-8"?>
<svg xmlns="http://www.w3.org/2000/svg" xmlns:xlink="http://www.w3.org/1999/xlink" width="143pt" height="60pt" viewBox="0 0 143 60" version="1.1">
<g id="surface1">
<path style=" stroke:none;fill-rule:nonzero;fill:rgb(0%,0%,0%);fill-opacity:1;" d="M 73.390625 17.25 L 73.390625 26.398438 L 74.183594 26.398438 L 74.183594 22.179688 L 77.324219 22.179688 L 77.324219 21.496094 L 74.183594 21.496094 L 74.183594 17.929688 L 77.671875 17.929688 L 77.671875 17.25 Z M 90.507812 17.816406 C 89.46875 20.449219 88.476562 23.40625 87.589844 26.605469 L 88.375 26.605469 C 88.59375 25.800781 88.84375 24.894531 89.082031 24.089844 L 92.640625 24.089844 C 92.878906 24.90625 93.117188 25.785156 93.332031 26.605469 L 94.15625 26.605469 C 93.34375 23.695312 92.390625 20.75 91.222656 17.816406 Z M 113.820312 17.816406 L 113.820312 26.609375 L 114.558594 26.609375 L 114.558594 22.554688 L 117.492188 22.554688 L 117.492188 21.898438 L 114.558594 21.898438 L 114.558594 18.472656 L 117.816406 18.472656 L 117.816406 17.816406 Z M 80.625 17.816406 L 80.625 26.609375 L 81.359375 26.609375 L 81.359375 22.460938 L 82.414062 22.460938 L 84.507812 26.609375 L 85.410156 26.609375 L 83.167969 22.363281 C 84.105469 22.074219 84.921875 21.367188 84.921875 20.070312 C 84.921875 18.800781 84.144531 17.816406 82.4375 17.816406 Z M 97.023438 17.816406 L 97.023438 26.605469 L 97.738281 26.605469 L 97.738281 18.75 L 97.75 18.75 L 101.652344 26.605469 L 102.628906 26.605469 L 102.628906 17.816406 L 101.914062 17.816406 L 101.914062 25.4375 L 101.886719 25.4375 L 98.117188 17.816406 Z M 105.800781 17.816406 L 105.800781 26.605469 L 106.539062 26.605469 L 106.539062 22.578125 L 107.078125 21.996094 L 110.074219 26.605469 L 111 26.605469 L 107.578125 21.484375 L 110.976562 17.816406 L 109.984375 17.816406 C 108.859375 19.128906 107.679688 20.449219 106.539062 21.734375 L 106.539062 17.816406 Z M 120.324219 17.816406 L 120.324219 23.535156 C 120.324219 25.648438 121.453125 26.722656 123.121094 26.722656 C 124.839844 26.722656 125.96875 25.613281 125.96875 23.382812 L 125.96875 17.816406 L 125.25 17.816406 L 125.25 23.457031 C 125.25 25.21875 124.449219 26.078125 123.15625 26.078125 C 121.867188 26.078125 121.066406 25.21875 121.066406 23.457031 L 121.066406 17.816406 Z M 129.113281 17.816406 L 129.113281 26.609375 L 129.851562 26.609375 L 129.851562 22.460938 L 130.90625 22.460938 L 133 26.609375 L 133.902344 26.609375 L 131.65625 22.363281 C 132.597656 22.074219 133.410156 21.367188 133.410156 20.070312 C 133.410156 18.800781 132.636719 17.816406 130.929688 17.816406 Z M 135.367188 17.816406 L 135.367188 18.460938 L 137.835938 18.460938 L 137.835938 26.605469 L 138.589844 26.605469 L 138.589844 18.460938 L 141.058594 18.460938 L 141.058594 17.816406 Z M 81.359375 18.472656 L 82.363281 18.472656 C 83.695312 18.472656 84.121094 19.316406 84.121094 20.160156 C 84.121094 21.078125 83.59375 21.824219 82.375 21.824219 L 81.359375 21.824219 Z M 129.851562 18.472656 L 130.855469 18.472656 C 132.183594 18.472656 132.609375 19.316406 132.609375 20.160156 C 132.609375 21.078125 132.082031 21.824219 130.867188 21.824219 L 129.851562 21.824219 Z M 90.832031 18.613281 L 90.847656 18.613281 C 90.949219 18.914062 91.058594 19.300781 91.171875 19.617188 C 91.625 20.890625 92.074219 22.238281 92.453125 23.457031 L 89.269531 23.457031 C 89.644531 22.199219 90.082031 20.851562 90.507812 19.617188 C 90.609375 19.316406 90.734375 18.925781 90.832031 18.613281 Z M 90.832031 18.613281 "/>
<path style=" stroke:none;fill-rule:nonzero;fill:rgb(0%,0%,0%);fill-opacity:1;" d="M 120.417969 33.414062 C 118.925781 33.414062 117.972656 34.332031 117.972656 35.617188 C 117.972656 36.765625 118.585938 37.367188 119.714844 38.035156 C 120.707031 38.636719 121.40625 39.066406 121.40625 40.089844 C 121.40625 41.097656 120.769531 41.765625 119.675781 41.765625 C 119.085938 41.765625 118.5625 41.664062 118.035156 41.484375 L 117.894531 42.191406 C 118.421875 42.355469 118.988281 42.441406 119.5 42.441406 C 121.183594 42.441406 122.210938 41.5 122.210938 40.027344 C 122.210938 38.917969 121.609375 38.289062 120.402344 37.570312 C 119.449219 36.988281 118.761719 36.546875 118.761719 35.554688 C 118.761719 34.761719 119.265625 34.070312 120.328125 34.070312 C 120.746094 34.070312 121.195312 34.144531 121.570312 34.257812 L 121.707031 33.605469 C 121.371094 33.488281 120.816406 33.414062 120.417969 33.414062 Z M 73.53125 33.527344 L 73.53125 39.242188 C 73.53125 41.359375 74.660156 42.433594 76.328125 42.433594 C 78.042969 42.433594 79.171875 41.324219 79.171875 39.09375 L 79.171875 33.527344 L 78.457031 33.527344 L 78.457031 39.167969 C 78.457031 40.929688 77.65625 41.789062 76.363281 41.789062 C 75.074219 41.789062 74.273438 40.929688 74.273438 39.167969 L 74.273438 33.527344 Z M 82.28125 33.527344 L 82.28125 42.316406 L 82.996094 42.316406 L 82.996094 34.460938 L 83.007812 34.460938 L 86.90625 42.316406 L 87.886719 42.316406 L 87.886719 33.527344 L 87.171875 33.527344 L 87.171875 41.148438 L 87.144531 41.148438 L 83.371094 33.527344 Z M 91.503906 33.527344 L 91.503906 42.316406 L 92.242188 42.316406 L 92.242188 33.527344 Z M 94.945312 33.527344 C 95.761719 36.460938 96.714844 39.382812 97.878906 42.316406 L 98.605469 42.316406 C 99.746094 39.40625 100.714844 36.472656 101.539062 33.527344 L 100.742188 33.527344 C 100.136719 35.910156 99.371094 38.300781 98.605469 40.527344 L 98.269531 41.527344 L 98.257812 41.527344 L 97.929688 40.515625 C 97.128906 38.238281 96.378906 35.894531 95.773438 33.527344 Z M 104.246094 33.527344 L 104.246094 42.316406 L 108.40625 42.316406 L 108.40625 41.664062 L 104.984375 41.664062 L 104.984375 38.0625 L 107.945312 38.0625 L 107.945312 37.402344 L 104.984375 37.402344 L 104.984375 34.183594 L 108.34375 34.183594 L 108.34375 33.527344 Z M 111.203125 33.527344 L 111.203125 42.316406 L 111.941406 42.316406 L 111.941406 38.171875 L 112.996094 38.171875 L 115.089844 42.316406 L 115.992188 42.316406 L 113.75 38.074219 C 114.6875 37.78125 115.503906 37.078125 115.503906 35.78125 C 115.503906 34.511719 114.726562 33.527344 113.019531 33.527344 Z M 125.226562 33.527344 L 125.226562 42.316406 L 125.964844 42.316406 L 125.964844 33.527344 Z M 128.082031 33.527344 L 128.082031 34.171875 L 130.550781 34.171875 L 130.550781 42.316406 L 131.304688 42.316406 L 131.304688 34.171875 L 133.777344 34.171875 L 133.777344 33.527344 Z M 134.84375 33.527344 C 135.628906 35.203125 136.535156 36.878906 137.597656 38.488281 L 137.597656 42.316406 L 138.339844 42.316406 L 138.339844 38.488281 C 139.480469 36.777344 140.332031 35.128906 141.09375 33.527344 L 140.269531 33.527344 C 139.691406 34.898438 138.839844 36.550781 138.023438 37.898438 C 137.148438 36.5625 136.332031 34.988281 135.679688 33.527344 Z M 111.941406 34.183594 L 112.945312 34.183594 C 114.273438 34.183594 114.699219 35.023438 114.699219 35.867188 C 114.699219 36.789062 114.171875 37.535156 112.957031 37.535156 L 111.941406 37.535156 Z M 111.941406 34.183594 "/>
<path style=" stroke:none;fill-rule:nonzero;fill:rgb(0%,0%,0%);fill-opacity:1;" d="M 28.964844 49.125 C 26.582031 49.125 25.332031 51.023438 25.332031 53.710938 C 25.332031 56.238281 26.457031 58.152344 28.863281 58.152344 C 31.257812 58.152344 32.5 56.265625 32.5 53.570312 C 32.5 51.050781 31.335938 49.125 28.964844 49.125 Z M 93.871094 49.125 C 92.378906 49.125 91.425781 50.042969 91.425781 51.328125 C 91.425781 52.476562 92.039062 53.078125 93.167969 53.746094 C 94.15625 54.347656 94.859375 54.78125 94.859375 55.800781 C 94.859375 56.804688 94.21875 57.472656 93.128906 57.472656 C 92.539062 57.472656 92.015625 57.371094 91.488281 57.195312 L 91.347656 57.902344 C 91.875 58.0625 92.441406 58.152344 92.953125 58.152344 C 94.636719 58.152344 95.660156 57.207031 95.660156 55.734375 C 95.660156 54.628906 95.0625 54 93.855469 53.28125 C 92.90625 52.699219 92.214844 52.257812 92.214844 51.265625 C 92.214844 50.472656 92.71875 49.78125 93.78125 49.78125 C 94.195312 49.78125 94.648438 49.855469 95.023438 49.96875 L 95.164062 49.316406 C 94.824219 49.199219 94.269531 49.125 93.871094 49.125 Z M 139.386719 49.125 C 137.894531 49.125 136.941406 50.042969 136.941406 51.328125 C 136.941406 52.476562 137.554688 53.078125 138.683594 53.746094 C 139.671875 54.347656 140.378906 54.78125 140.378906 55.800781 C 140.378906 56.804688 139.738281 57.472656 138.648438 57.472656 C 138.058594 57.472656 137.53125 57.371094 137.003906 57.195312 L 136.867188 57.902344 C 137.394531 58.0625 137.957031 58.152344 138.46875 58.152344 C 140.152344 58.152344 141.179688 57.207031 141.179688 55.734375 C 141.179688 54.628906 140.578125 54 139.375 53.28125 C 138.421875 52.699219 137.734375 52.257812 137.734375 51.265625 C 137.734375 50.472656 138.234375 49.78125 139.300781 49.78125 C 139.714844 49.78125 140.164062 49.855469 140.539062 49.96875 L 140.679688 49.316406 C 140.339844 49.199219 139.789062 49.125 139.386719 49.125 Z M 100.777344 49.148438 C 98.542969 49.148438 97.203125 50.976562 97.203125 53.730469 C 97.203125 56.527344 98.570312 58.113281 100.75 58.113281 C 101.492188 58.113281 102.183594 57.925781 102.796875 57.609375 L 102.582031 57.007812 C 102.105469 57.246094 101.515625 57.445312 100.867188 57.445312 C 99.0625 57.445312 98.019531 56.074219 98.019531 53.644531 C 98.019531 51.367188 98.996094 49.816406 100.714844 49.816406 C 101.378906 49.816406 101.933594 49.957031 102.480469 50.21875 L 102.746094 49.617188 C 102.117188 49.300781 101.507812 49.148438 100.777344 49.148438 Z M 126.691406 49.148438 C 124.460938 49.148438 123.121094 50.976562 123.121094 53.730469 C 123.121094 56.527344 124.484375 58.113281 126.664062 58.113281 C 127.40625 58.113281 128.09375 57.925781 128.710938 57.609375 L 128.496094 57.007812 C 128.019531 57.246094 127.429688 57.445312 126.78125 57.445312 C 124.972656 57.445312 123.933594 56.074219 123.933594 53.644531 C 123.933594 51.367188 124.914062 49.816406 126.628906 49.816406 C 127.292969 49.816406 127.84375 49.957031 128.398438 50.21875 L 128.660156 49.617188 C 128.035156 49.300781 127.417969 49.148438 126.691406 49.148438 Z M 34.65625 49.238281 L 34.65625 58.027344 L 35.398438 58.027344 L 35.398438 53.972656 L 38.332031 53.972656 L 38.332031 53.316406 L 35.398438 53.316406 L 35.398438 49.890625 L 38.65625 49.890625 L 38.65625 49.238281 Z M 45.789062 49.238281 C 44.75 51.871094 43.757812 54.828125 42.867188 58.027344 L 43.660156 58.027344 C 43.871094 57.222656 44.121094 56.316406 44.359375 55.507812 L 47.921875 55.507812 C 48.160156 56.324219 48.398438 57.207031 48.609375 58.027344 L 49.4375 58.027344 C 48.621094 55.117188 47.667969 52.171875 46.503906 49.238281 Z M 51.582031 49.238281 L 51.582031 58.027344 L 52.324219 58.027344 L 52.324219 54.464844 L 53.515625 54.464844 C 55.15625 54.464844 56.121094 53.378906 56.121094 51.757812 C 56.121094 50.546875 55.484375 49.628906 54.453125 49.351562 C 54.164062 49.273438 53.828125 49.238281 53.476562 49.238281 Z M 58.6875 49.238281 L 58.6875 58.027344 L 59.429688 58.027344 L 59.429688 54.464844 L 60.617188 54.464844 C 62.261719 54.464844 63.226562 53.378906 63.226562 51.757812 C 63.226562 50.546875 62.585938 49.628906 61.558594 49.351562 C 61.269531 49.273438 60.933594 49.238281 60.582031 49.238281 Z M 65.308594 49.238281 L 65.308594 58.027344 L 69.203125 58.027344 L 69.203125 57.359375 L 66.046875 57.359375 L 66.046875 49.238281 Z M 70.824219 49.238281 L 70.824219 58.027344 L 71.5625 58.027344 L 71.5625 49.238281 Z M 74.171875 49.238281 L 74.171875 58.027344 L 78.332031 58.027344 L 78.332031 57.375 L 74.910156 57.375 L 74.910156 53.769531 L 77.867188 53.769531 L 77.867188 53.113281 L 74.910156 53.113281 L 74.910156 49.890625 L 78.269531 49.890625 L 78.269531 49.238281 Z M 80.601562 49.238281 L 80.601562 58.027344 L 82.746094 58.027344 C 85.226562 58.027344 86.578125 56.4375 86.578125 53.507812 C 86.578125 50.960938 85.316406 49.238281 82.878906 49.238281 Z M 105.199219 49.238281 L 105.199219 58.027344 L 105.9375 58.027344 L 105.9375 49.238281 Z M 108.777344 49.238281 L 108.777344 58.027344 L 112.9375 58.027344 L 112.9375 57.375 L 109.515625 57.375 L 109.515625 53.769531 L 112.472656 53.769531 L 112.472656 53.113281 L 109.515625 53.113281 L 109.515625 49.890625 L 112.875 49.890625 L 112.875 49.238281 Z M 115.371094 49.238281 L 115.371094 58.027344 L 116.085938 58.027344 L 116.085938 50.167969 L 116.097656 50.167969 L 119.996094 58.027344 L 120.976562 58.027344 L 120.976562 49.238281 L 120.261719 49.238281 L 120.261719 56.855469 L 120.234375 56.855469 L 116.464844 49.238281 Z M 130.976562 49.238281 L 130.976562 58.027344 L 135.136719 58.027344 L 135.136719 57.375 L 131.714844 57.375 L 131.714844 53.769531 L 134.671875 53.769531 L 134.671875 53.113281 L 131.714844 53.113281 L 131.714844 49.890625 L 135.074219 49.890625 L 135.074219 49.238281 Z M 28.851562 49.78125 C 30.886719 49.78125 31.699219 51.453125 31.699219 53.710938 C 31.699219 55.683594 30.957031 57.496094 28.976562 57.496094 C 26.933594 57.496094 26.132812 55.820312 26.132812 53.570312 C 26.132812 51.566406 26.898438 49.78125 28.851562 49.78125 Z M 52.324219 49.890625 L 53.386719 49.890625 C 53.628906 49.890625 53.925781 49.917969 54.164062 49.980469 C 54.878906 50.183594 55.316406 50.902344 55.316406 51.820312 C 55.316406 53.027344 54.703125 53.820312 53.589844 53.820312 L 52.324219 53.820312 Z M 59.429688 49.890625 L 60.492188 49.890625 C 60.730469 49.890625 61.03125 49.917969 61.269531 49.980469 C 61.984375 50.183594 62.425781 50.902344 62.425781 51.820312 C 62.425781 53.027344 61.808594 53.820312 60.695312 53.820312 L 59.429688 53.820312 Z M 81.339844 49.890625 L 82.828125 49.890625 C 84.875 49.890625 85.777344 51.453125 85.777344 53.542969 C 85.777344 56.1875 84.796875 57.375 82.820312 57.375 L 81.339844 57.375 Z M 46.113281 50.03125 L 46.128906 50.03125 C 46.226562 50.335938 46.34375 50.722656 46.453125 51.039062 C 46.902344 52.308594 47.355469 53.660156 47.734375 54.878906 L 44.546875 54.878906 C 44.921875 53.617188 45.363281 52.273438 45.789062 51.039062 C 45.890625 50.738281 46.015625 50.34375 46.113281 50.03125 Z M 46.113281 50.03125 "/>
<path style=" stroke:none;fill-rule:nonzero;fill:rgb(57.254902%,76.862745%,87.843137%);fill-opacity:1;" d="M 39.066406 1.703125 L 39.066406 42.320312 L 47.332031 42.320312 L 47.332031 1.703125 Z M 52.832031 9.191406 L 52.832031 42.320312 L 61.09375 42.320312 L 61.09375 9.191406 Z M 25.300781 16.402344 L 25.300781 42.316406 L 33.566406 42.316406 L 33.566406 16.402344 Z M 25.300781 16.402344 "/>
<path style=" stroke:none;fill-rule:nonzero;fill:rgb(0%,55.294118%,78.039216%);fill-opacity:1;" d="M 48.9375 2.097656 L 48.9375 41.898438 L 50.855469 41.386719 L 50.855469 2.617188 Z M 62.703125 9.617188 L 62.703125 41.902344 L 64.675781 41.386719 L 64.675781 10.144531 Z M 35.175781 16.808594 L 35.175781 41.902344 L 37.128906 41.347656 L 37.128906 17.355469 Z M 35.175781 16.808594 "/>
<path style=" stroke:none;fill-rule:nonzero;fill:rgb(57.254902%,76.862745%,87.843137%);fill-opacity:1;" d="M 79.429688 29.300781 C 75.066406 29.292969 70.511719 29.375 65.875 29.574219 L 65.875 31.394531 C 77.632812 30.40625 89.144531 29.785156 99.199219 29.886719 C 93.464844 29.554688 86.710938 29.308594 79.429688 29.300781 Z M 24.171875 33.074219 C 5.199219 36.40625 -3.148438 40.738281 4.496094 43.777344 C 11.355469 46.808594 31.929688 47.4375 54.125 46 C 40.03125 45.667969 28.234375 45.683594 20.96875 44.261719 C 12.554688 41.898438 13.300781 38.972656 24.171875 36.175781 Z M 24.171875 33.074219 "/>
</g>
</svg>
